<svg xmlns="http://www.w3.org/2000/svg" viewBox="0 0 32 32">
  <rect width="32" height="32" rx="8" fill="#e05a2b" />
  <path d="M13.2 8.4c-.3-1-.1-1.8.4-2.6" fill="none" stroke="#fff" stroke-width="1.4" stroke-linecap="round" opacity="0.85" />
  <path d="M16.4 8.4c-.3-1.3-.1-2.3.5-3.3" fill="none" stroke="#fff" stroke-width="1.4" stroke-linecap="round" opacity="0.85" />
  <path d="M19.6 8.4c-.3-1-.1-1.8.4-2.6" fill="none" stroke="#fff" stroke-width="1.4" stroke-linecap="round" opacity="0.85" />
  <path d="M7 15c0-1.1.9-2 2-2h14c1.1 0 2 .9 2 2 0 5.5-4 9.6-9 9.6s-9-4.1-9-9.6Z" fill="#fff" />
  <ellipse cx="16" cy="15" rx="9" ry="2" fill="#fff" />
  <path d="M23 15.5c1.9.4 3 1.6 3 3s-1.6 2.6-3.6 2.9" fill="none" stroke="#fff" stroke-width="1.6" stroke-linecap="round" />
</svg>
